<svg xmlns="http://www.w3.org/2000/svg" xmlns:xlink="http://www.w3.org/1999/xlink"
  aria-hidden="true" role="img" width="128" height="130" viewBox="0 0 128 128"
  class="css-1j8o68f">
  <defs id="SvgjsDefs2311">
    <linearGradient id="SvgjsLinearGradient2318">
      <stop id="SvgjsStop2319" stop-color="#8f5e25" offset="0"></stop>
      <stop id="SvgjsStop2320" stop-color="#fbf4a1" offset="0.5"></stop>
      <stop id="SvgjsStop2321" stop-color="#8f5e25" offset="1"></stop>
    </linearGradient>
    <linearGradient id="SvgjsLinearGradient2322">
      <stop id="SvgjsStop2323" stop-color="#8f5e25" offset="0"></stop>
      <stop id="SvgjsStop2324" stop-color="#fbf4a1" offset="0.5"></stop>
      <stop id="SvgjsStop2325" stop-color="#8f5e25" offset="1"></stop>
    </linearGradient>
  </defs>
  <g id="SvgjsG2312" featurekey="symbolContainer" transform="matrix(1,0,0,1,0,0)"
    fill="url(#SvgjsLinearGradient2318)">
    <rect width="110" height="128" rx="8"></rect>
  </g>
  <g id="SvgjsG2313" featurekey="monogramFeature-0"
    transform="matrix(2.3355988968129906,0,0,2.3355988968129906,25.2688773321442,-27.356086528279747)"
    fill="#3c09c4">
    <path
      d="M14.18 18.134999999999998 c4.6485 0 7.7637 1.4942 9.3457 4.4824 c1.0937 2.2656 1.6406 4.4824 1.6406 6.6504 l-0.058594 0 c-3.1837 0.27343 -5.3613 0.41016 -6.5332 0.41016 c0 -1.543 -0.47851 -2.8418 -1.4355 -3.8965 c-0.89845 -0.5078 -1.7285 -0.76172 -2.4902 -0.76172 l-1.1719 0 c-1.9922 0 -3.203 0.77147 -3.6328 2.3145 c-0.097646 0.44921 -0.14648 0.80077 -0.14648 1.0547 l0 0.61523 c0 2.1875 1.1523 3.7696 3.457 4.7461 c0.19532 0.17578 1.7969 0.9082 4.8047 2.1973 c1.6016 0.74218 3.0858 1.6601 4.4531 2.7539 l0 0.058594 l-7.3535 0 l0 0.82031 l9.6973 0 l0 1.1719 l1.2305 0 l0 12.715 l-2.4023 0 l0 6.5332 l-18.633 0 l0 -6.5332 l-4.3945 0 l0 -4.3945 l2.4902 0 l0 -1.5234 l-2.4902 0 l0 -1.0254 l8.5254 0 l0 6.9434 l8.7305 0 l0 -10.459 l-6.5332 0 l0 -3.4277 l-8.1152 0 l0 -0.82031 l3.9258 0 l0 -0.058594 c-3.4374 -2.2852 -5.1563 -5.5175 -5.1563 -9.6973 l0 -0.55664 c0 -3.496 1.0742 -6.1523 3.2227 -7.9688 c1.9531 -1.5625 4.9608 -2.3438 9.0234 -2.3438 z M24.756 38.760000000000005 l2.959 0 l0 0.82031 l-2.959 0 l0 -0.82031 z M-2.2559 47.549 l2.8125 0 l0 1.5234 l-2.8125 0 l0 -1.5234 z M16.523 47.549 l0.87888 -0.00002861 c0.097646 0.019541 0.14648 0.068379 0.14648 0.14651 l0 0.20508 l-0.76172 0 l0 0.26367 l0.67383 0 l0 0.20508 c0 0.097646 -0.039053 0.14648 -0.11719 0.14648 l-0.55664 0 l0 0.29297 l0.76172 0 l0 0.20508 c0 0.078135 -0.048838 0.11719 -0.14648 0.11719 l-0.87891 0 c-0.097646 0 -0.14648 -0.039053 -0.14648 -0.11719 l0 -1.3184 c0.019541 -0.097646 0.068379 -0.14648 0.14651 -0.14648 z M16.172 49.629 l0.26361 0.00002861 c0.039053 0 0.20508 0.17578 0.49805 0.52734 c0.13673 -0.35156 0.24416 -0.52734 0.32229 -0.52734 l0.20508 0 c0.097646 0 0.14648 0.039053 0.14648 0.11719 c-0.41016 0.46875 -0.61523 0.95704 -0.61523 1.4648 l-0.20508 0 c-0.097646 0 -0.166 -0.27343 -0.20505 -0.82031 c-0.27343 -0.3711 -0.41016 -0.62502 -0.41016 -0.76175 z M15.967 51.6797 l0.26364 -0.00002861 c0.11719 0 0.23438 0.30272 0.35156 0.9082 l0.14648 0 c0.11719 -0.60548 0.22462 -0.9082 0.32227 -0.9082 l0.29297 0 c0.078135 0.019541 0.11719 0.068379 0.11719 0.14651 l0 1.2891 c0 0.097646 -0.039053 0.14648 -0.11719 0.14648 l-0.20508 0 l0 -0.87891 l-0.087891 0 l-0.26367 0.87891 l-0.20508 0 c-0.097646 0 -0.21483 -0.29297 -0.35156 -0.87891 l-0.058594 0 l0 0.87891 l-0.20508 0 c-0.097646 0 -0.14648 -0.048838 -0.14648 -0.14648 l0 -1.2891 c0.019541 -0.097646 0.068379 -0.14648 0.14651 -0.14648 z M23.994 53.8184 l0.70313 0 c0.3711 0 0.55664 0.18554 0.55664 0.55664 c-0.097646 0 -0.14648 0.039053 -0.14648 0.11719 c0.13673 0.17578 0.20508 0.34181 0.20508 0.49805 c-0.11719 0.27343 -0.3711 0.41016 -0.76172 0.41016 l-0.41016 0 c-0.097646 0 -0.14648 -0.048838 -0.14648 -0.14648 l0 -1.4355 z M24.404 54.1699 l0 0.26367 l0.29297 0 c0.078135 0 0.11719 -0.048838 0.11719 -0.14648 l0 -0.11719 l-0.41016 0 z M24.404 54.6973 l0 0.35156 l0.35156 0 c0.097646 0 0.14648 -0.048838 0.14648 -0.14648 l0 -0.058594 c0 -0.097646 -0.048838 -0.14648 -0.14648 -0.14648 l-0.35156 0 z M23.994 55.8691 l0.29297 0 c0.097646 0 0.30272 0.32227 0.61523 0.9668 l0.058594 0 l0 -0.9668 l0.35156 0 l0 1.4355 c0 0.097646 -0.048838 0.14648 -0.14648 0.14648 l-0.14648 0 c-0.039053 0 -0.26367 -0.29297 -0.67383 -0.87891 l0 0.73242 c0 0.097646 -0.048838 0.14648 -0.14648 0.14648 l-0.058594 0 c-0.097646 0 -0.14648 -0.048838 -0.14648 -0.14648 l0 -1.4355 z"></path>
  </g>
</svg>